<?xml version="1.0" encoding="UTF-8"?>
<svg id="Calque_2" data-name="Calque 2" xmlns="http://www.w3.org/2000/svg" viewBox="0 0 19.28 36.87">
  <defs>
    <style>
      .cls-1 {
        fill: #f8ecda;
      }
    </style>
  </defs>
  <g id="Calque_2-2" data-name="Calque 2">
    <g id="zyiBZ0">
      <path class="cls-1" d="M5.71,36.87c0-5.47,0-10.94,0-16.42q0-.28-.29-.28c-1.72,0-3.44,0-5.16,0-.18,0-.26-.03-.26-.24,0-2.04,0-4.07,0-6.11,0-.2,.06-.24,.25-.24,1.73,0,3.46,0,5.18,0,.09,0,.17,0,.27,0,0-.14,0-.24,0-.33,0-1.56,0-3.12,0-4.68,0-.96,.12-1.91,.37-2.84,.43-1.56,1.21-2.91,2.48-3.95C10.06,.56,11.82,.03,13.71,0c1.62-.02,3.24,.09,4.86,.16,.23,0,.47,.05,.7,.08V6.13c-.1,0-.18,0-.26,0-1.01,0-2.02,0-3.02,0-.42,0-.84,.03-1.25,.09-1.11,.14-1.83,.76-2.07,1.79-.08,.33-.13,.68-.13,1.02-.02,1.43,0,2.85,0,4.28,0,.28,0,.28,.29,.28,1.99,0,3.99,0,5.98,0,.08,0,.15,0,.26,0-.06,.46-.1,.89-.16,1.31-.22,1.67-.44,3.35-.65,5.02-.02,.2-.09,.25-.28,.25-1.72,0-3.44,0-5.16,0-.28,0-.28,0-.28,.27,0,5.47,0,10.94,0,16.42H5.71Z"/>
    </g>
  </g>
</svg>