<?xml version="1.0" encoding="UTF-8"?>
<svg id="Calque_2" data-name="Calque 2" xmlns="http://www.w3.org/2000/svg" viewBox="0 0 44.41 35.54">
  <defs>
    <style>
      .cls-1 {
        fill: #f8ecda;
      }
    </style>
  </defs>
  <g id="Calque_2-2" data-name="Calque 2">
    <g id="gwVHoj">
      <path class="cls-1" d="M22.18,35.53c-4.44,0-8.88,0-13.32,0-1.45,0-2.9,0-4.35,0-2.15,0-3.99-1.45-4.41-3.55C-.02,31.35,0,30.67,0,30.01c0-7.58,0-15.15,.02-22.73,0-1.06-.02-2.11,.03-3.17C.15,1.9,2.08,.03,4.31,.01,8.2,0,12.1,0,16,0c4.44,0,8.88,0,13.32,0,3.58,0,7.16-.01,10.74,0,2.38,.01,4.35,2.04,4.35,4.44,0,8.37,0,16.73,0,25.1,0,.71,.03,1.43-.05,2.13-.26,2.17-2.12,3.83-4.29,3.85-3.29,.02-6.57,0-9.86,.01-2.67,0-5.35,0-8.02,0h0Zm17.75-4.46V8.92c-.11,.07-.2,.11-.28,.16-1.87,1.17-3.74,2.34-5.61,3.51-2.07,1.29-4.14,2.59-6.21,3.88-1.82,1.14-3.64,2.27-5.47,3.4-.09,.05-.27,.05-.36,0-.49-.29-.97-.6-1.46-.9-2.33-1.46-4.65-2.92-6.98-4.38-2.65-1.65-5.29-3.31-7.94-4.96-.38-.24-.76-.47-1.17-.73V31.08H39.94Zm0-26.61H4.53s.05,.07,.08,.08c2.6,1.63,5.21,3.25,7.81,4.88,3.2,2,6.39,4,9.58,6,.15,.09,.25,.1,.4,0,.68-.44,1.36-.86,2.05-1.29,2.65-1.65,5.29-3.31,7.94-4.96,1.49-.93,2.99-1.86,4.48-2.8,1.01-.63,2.01-1.26,3.06-1.92Z"/>
    </g>
  </g>
</svg>