<?xml version="1.0" encoding="UTF-8"?>
<svg id="Calque_2" data-name="Calque 2" xmlns="http://www.w3.org/2000/svg" viewBox="0 0 36.86 36.89">
  <defs>
    <style>
      .cls-1 {
        fill: #f8ecda;
      }
    </style>
  </defs>
  <g id="Calque_2-2" data-name="Calque 2">
    <g id="GcZZdJ">
      <path class="cls-1" d="M36.86,18.43c.16,9.85-8.08,18.77-18.98,18.46C8.06,36.61-.07,28.58,0,18.32,.07,7.78,8.79-.22,18.85,0c10.19,.23,18.13,8.7,18.01,18.42Zm-19.47,4.91c.11,.15,.19,.29,.29,.4,.78,.9,1.8,1.35,2.96,1.48,1.37,.14,2.69-.12,3.92-.75,1.86-.95,3.08-2.47,3.91-4.34,.77-1.74,1.07-3.58,1.07-5.48,0-1.42-.33-2.76-1.02-3.99-1.63-2.9-4.19-4.39-7.42-4.81-1.37-.18-2.75-.09-4.11,.19-2.51,.52-4.65,1.69-6.26,3.72-1.41,1.78-2.14,3.8-2.05,6.1,.04,.99,.21,1.96,.6,2.88,.5,1.15,1.26,2.05,2.42,2.57,.51,.23,.79,.09,.92-.44,.09-.37,.17-.74,.28-1.11,.1-.33,.03-.6-.2-.86-.42-.47-.7-1.02-.87-1.63-.28-1.04-.23-2.08,0-3.1,.54-2.32,1.87-4.02,4.04-5.04,1.69-.79,3.46-.89,5.27-.53,1.05,.21,2.01,.66,2.81,1.39,1.24,1.14,1.76,2.6,1.8,4.25,.02,1.03-.08,2.05-.3,3.05-.27,1.25-.69,2.43-1.45,3.47-.76,1.05-1.72,1.79-3.07,1.84-.81,.03-1.52-.24-2.06-.86-.58-.66-.68-1.44-.46-2.27,.3-1.07,.63-2.12,.93-3.19,.24-.84,.47-1.67,.38-2.56-.16-1.58-1.44-2.2-2.7-1.84-.97,.28-1.57,.98-1.94,1.89-.59,1.44-.49,2.89,.03,4.33,.03,.09,.05,.21,.03,.3-.58,2.5-1.17,4.99-1.77,7.48-.27,1.12-.47,2.25-.47,3.4,0,1.08,.07,2.15,.23,3.22,.01,.08,.08,.21,.14,.22,.08,.01,.2-.04,.26-.11,.24-.3,.47-.61,.69-.92,.87-1.26,1.64-2.57,2.06-4.06,.32-1.17,.61-2.34,.91-3.52,.06-.25,.13-.5,.2-.77Z"/>
    </g>
  </g>
</svg>