<?xml version="1.0" encoding="UTF-8"?>
<svg id="Calque_2" data-name="Calque 2" xmlns="http://www.w3.org/2000/svg" viewBox="0 0 44.41 36.18">
  <defs>
    <style>
      .cls-1 {
        fill: #f8ecda;
      }
    </style>
  </defs>
  <g id="Calque_2-2" data-name="Calque 2">
    <g id="tv2oZq">
      <path class="cls-1" d="M13.45,28.32c-4.19-.33-7-2.44-8.52-6.32,.72,.03,1.39,.08,2.07,.09,.68,0,1.34-.12,2-.3-2.11-.48-3.87-1.54-5.23-3.23-1.37-1.69-2.02-3.64-2.03-5.84,1.28,.69,2.63,1.08,4.11,1.13-2.41-1.74-3.78-4.03-4.01-6.97-.14-1.85,.27-3.59,1.2-5.2C7.99,7.51,14.24,10.7,21.87,11.23c-.05-.32-.11-.61-.14-.9-.31-2.54,.3-4.84,1.89-6.85,1.42-1.8,3.27-2.94,5.53-3.32,3.16-.54,5.89,.36,8.18,2.61,.09,.09,.16,.12,.29,.09,1.93-.4,3.75-1.1,5.45-2.08,.05-.03,.09-.05,.18-.09-.73,2.15-2.04,3.79-3.91,5.01,1.76-.19,3.44-.66,5.08-1.33-.02,.04-.05,.09-.07,.13-1.18,1.71-2.6,3.19-4.27,4.42-.11,.08-.15,.17-.15,.31,.05,1.29,0,2.57-.15,3.85-.22,1.84-.62,3.64-1.22,5.4-1.08,3.21-2.69,6.14-4.87,8.74-2.77,3.3-6.15,5.75-10.18,7.29-1.71,.65-3.47,1.11-5.28,1.38-2.01,.3-4.04,.4-6.07,.25-4.34-.31-8.36-1.63-12.05-3.94-.02-.01-.04-.03-.11-.08,5,.49,9.47-.75,13.45-3.77Z"/>
    </g>
  </g>
</svg>